{"title":"Dark Island.2010.720p.BRRip.x264.Feel-Free","uid":6029028,"size":1958943594,"categoryP":"video","categoryS":"hd___movies","magnet":"?xt=urn:btih:cd78290244a6a235de059be09f4f392284ccecdb&amp;dn=Dark+Island.2010.720p.BRRip.x264.Feel-Free&amp;tr=udp%3A%2F%2Ftracker.openbittorrent.com%3A80&amp;tr=udp%3A%2F%2Fopen.demonii.com%3A1337&amp;tr=udp%3A%2F%2Ftracker.coppersurfer.tk%3A6969&amp;tr=udp%3A%2F%2Fexodus.desync.com%3A6969","seeders":2,"leechers":1,"uploader":"neon","files":-1,"time":1292008670,"description":"Genre:Action | Sci-Fi | Thriller\nLanguage:English\n &lt;a href=&quot; http://www.imdb.com/title/tt1043651/&quot; rel=&quot;nofollow&quot; target=&quot;_NEW&quot;&gt; http://www.imdb.com/title/tt1043651/&lt;/a&gt;\nSource:720p x264-playHD.Thx\n\n\nFormat : Matroska\nFile size : 1.82 GiB\nDuration : 1h 26mn\nOverall bit rate : 2 995 Kbps\n\n\nVideo\nFormat settings, CABAC : Yes\nFormat settings, ReFrames : 4 frames\nCodec ID : V_MPEG4/ISO/AVC\nDuration : 1h 26mn\nBit rate : 2 678 Kbps\nWidth : 1 280 pixels\nHeight : 720 pixels\nDisplay aspect ratio : 16:9\nFrame rate mode : Variable\nFrame rate : 23.976 fps\nColor space : YUV\nChroma subsampling : 4:2:0\nBit depth : 8 bits\nScan type : Progressive\nBits/(Pixel*Frame) : 0.121\nStream size : 1.55 GiB (85%)\nWriting library : x264\n\n\nAudio\nID : 2\nFormat : AC-3\nFormat/Info : Audio Coding 3\nMode extension : CM (complete main)\nCodec ID : A_AC3\nDuration : 1h 26mn\nBit rate mode : Constant\nBit rate : 384 Kbps\nChannel(s) : 6 channels\nChannel positions : Front: L C R, Side: L R, LFE\nSampling rate : 48.0 KHz\nBit depth : 16 bits\nVideo delay : -1mn 5s\nStream size : 238 MiB (13%)\nLanguage : English\n\n\nPlot:\nAfter losing contact with its researchers on a remote island, a military corporation hires a group of scientists and soldiers to find out what went wrong\n\n","torrent":{"xt":"urn:btih:cd78290244a6a235de059be09f4f392284ccecdb","amp;dn":"Dark+Island.2010.720p.BRRip.x264.Feel-Free","amp;tr":["udp%3A%2F%2Ftracker.openbittorrent.com%3A80","udp%3A%2F%2Fopen.demonii.com%3A1337","udp%3A%2F%2Ftracker.coppersurfer.tk%3A6969","udp%3A%2F%2Fexodus.desync.com%3A6969"],"infoHash":"cd78290244a6a235de059be09f4f392284ccecdb","infoHashBuffer":{"type":"Buffer","data":[205,120,41,2,68,166,162,53,222,5,155,224,159,79,57,34,132,204,236,219]},"announce":[],"urlList":[]}}